# xmcd CD database file
#
# Track frame offsets:
#	150
#	27569
#	62031
#	84302
#	122153
#	143089
#	175796
#	207155
#	234621
#
# Disc length: 3564 seconds
#
# Revision: 0
# Processed by: cddbd v1.5.1PL0 Copyright (c) Steve Scherf et al.
# Submitted via: CDex 1.51
#
DISCID=780dea09
DTITLE=Jochen Baldes - Subnoder
DYEAR=2003
DGENRE=Jazz
TTITLE0=lucid
TTITLE1=habmbubah balabmbubah
TTITLE2=i like bob marley
TTITLE3=bina mina
TTITLE4=ruby
TTITLE5=beeba beeba pleeess
TTITLE6=like kenny
TTITLE7=umaj
TTITLE8=fife o foa
EXTD=YEAR: 2003
EXTT0=
EXTT1=
EXTT2=
EXTT3=
EXTT4=
EXTT5=
EXTT6=
EXTT7=
EXTT8=
PLAYORDER=
